<svg xmlns="http://www.w3.org/2000/svg" width="128" height="128" data-name="Layer1" viewBox="0 0 25.098 25.098">
  <path fill="#7fbf40" d="M23.774 1.325a2.5 2.5 0 0 1 0 3.536l-6.01 6.01-3.536-3.535 6.01-6.01a2.5 2.5 0 0 1 3.536 0z" style="fill:#7fbf40;fill-opacity:1"/>
  <rect width="9" height="4" x="13.248" y="-4.874" fill="#7fbf40" rx="1" ry="1" style="fill:#7fbf40;fill-opacity:1" transform="rotate(45)"/>
  <path fill="#e4e4e8" d="M14.935 13.7 11.4 10.164l-9.686 9.682a1 1 0 0 0-.289.8l.033.363a1 1 0 0 1-.289.8l-.729.729a1.5 1.5 0 0 0 0 2.12 1.5 1.5 0 0 0 2.121 0l.73-.728a1 1 0 0 1 .8-.29l.362.034a1 1 0 0 0 .8-.29z"/>
</svg>
